
<svg version="1.1"
	 xmlns="http://www.w3.org/2000/svg" xmlns:xlink="http://www.w3.org/1999/xlink" 
	 x="0px" y="0px" width="104.2px" height="58px" viewBox="0 0 104.2 58" enable-background="new 0 0 104.2 58" xml:space="preserve"
	>
<defs>
</defs>
<g id="kFqpzS.tif_1_">
	<g>
		<path fill="#666666" d="M56.8,0c1.6,0.5,3.3,0.4,5,0.7c12,1.8,22.5,6.8,31.5,14.9c4.1,3.7,7.6,7.8,10.6,12.5
			c0.4,0.7,0.5,1.2,0,1.9c-8.4,12.9-20,21.6-34.9,25.8c-6.6,1.9-13.3,2.5-20.1,2.1c-15.8-0.8-29.4-6.9-40.5-18.1
			c-3-3-5.6-6.2-7.8-9.8c-0.2-0.3-0.4-0.5-0.6-0.7c0-0.2,0-0.3,0-0.5c0.1-0.1,0.3-0.3,0.4-0.4c3.1-5,6.8-9.3,11.2-13.2
			C20.5,7.3,30.8,2.5,42.5,0.7c1.6-0.2,3.3-0.2,4.8-0.7C50.5,0,53.7,0,56.8,0z M24.5,29.8c0,5.4,0.1,9.7,0,15c0,1.1,1.7,1.2,2.7,1.7
			C37.3,52,43.6,52,55,51.2c8.4-0.6,15.1-1,22.5-5c0.8-0.4,1.6-2.6,1.6-3.5c0-10.7,0.4-16.2,0.5-26.9c0-1-2-3.8-2.9-4.3
			C66.6,6,60.1,6.6,48.8,7.4C40.3,7.9,34,7.1,26.5,11.1c-0.8,0.5-2,3-2,4C24.6,20.4,24.5,24.5,24.5,29.8z M17.9,16.3
			c-5.6,4-7.1,6.3-11,11.8c-0.5,0.7-0.4,1.6,0,2.2c2.1,3.1,3.6,4.5,6.3,7.1c2.1,1.9,1.5,1,4,2.6C17.2,30,17.9,26.4,17.9,16.3z
			 M87.9,40.2c0.1,0,1.2-0.7,1.3-0.7c5.4-3.8,4.2-3.2,7.9-8.7c0.5-0.7,0.3-1.7-0.1-2.3c-2.8-4.1-3.8-6.5-7.7-9.7
			c-1.2-1-0.3,0-1.7-0.8C87.6,27.9,87.9,30.4,87.9,40.2z"/>
		<path fill="#FEFEFE" d="M47.4,0c-1.6,0.5-3.2,0.5-4.8,0.7c-11.7,1.8-22,6.6-30.9,14.4C7.3,19,3.5,23.4,0.4,28.3
			c-0.1,0.2-0.3,0.3-0.4,0.4c0-9.3,0-18.6,0-27.9C0,0.1,0.2,0,0.9,0C16.4,0,31.9,0,47.4,0z"/>
		<path fill="#666666" d="M73.5,30.9c-0.8,0-1.5,0-2.3,0c-1.8,0-1.6-0.2-1.6,1.5c0,1.8,0,3.5,0,5.3c0,0.6-0.1,0.9-0.9,0.9
			c-3,0.1-3,0.1-3-2.9c0-1.4,0.1-2.8,0-4.1c-0.2-1.6-1.6-0.5-2.4-0.7c-0.5-0.1-1.5-0.5-1.4,0.7c0,2,0,4,0,6c0,0.6-0.1,0.9-0.9,0.9
			c-3,0.1-3,0.1-3-2.9c0-1.4,0.1-2.8,0-4.1c-0.2-1.6-1.6-0.5-2.4-0.7c-0.5-0.1-1.5-0.5-1.4,0.7c0,2,0,4,0,6c0,0.6-0.1,0.9-0.9,0.9
			c-3,0.1-3,0.1-3-2.9c0-1.4,0.1-2.8,0-4.1c-0.2-1.6-1.6-0.5-2.4-0.7c-0.5-0.1-1.5-0.5-1.4,0.7c0,2,0,4,0,6c0,0.6-0.1,0.9-0.9,0.9
			c-3,0.1-3,0.1-3-2.9c0-1.4,0.1-2.8,0-4.1c-0.2-1.6-1.6-0.5-2.4-0.7c-0.5-0.1-1.5-0.5-1.4,0.7c0,2,0,4,0,6c0,0.6-0.1,0.9-0.9,0.9
			c-3,0.1-3,0.1-3-2.9c0-1.1-0.1-2.3,0-3.4c0.1-1.2-0.2-1.6-1.5-1.5c-1.8,0.1-3.5,0-5.3,0c-0.7,0-1-0.1-1-0.9c0-3-0.1-3,2.9-3
			c1.1,0,2.2,0,3.3,0c1.8,0,1.6,0.2,1.6-1.5c0-1.8,0-3.5,0-5.3c0-0.6,0.1-0.9,0.9-0.9c3-0.1,3-0.1,3,2.9c0,1.4-0.1,2.8,0,4.1
			c0.2,1.6,1.6,0.5,2.4,0.7c0.5,0.1,1.5,0.5,1.4-0.7c0-2,0-4,0-6c0-0.6,0.1-0.9,0.9-0.9c3-0.1,3-0.1,3,2.9c0,1.4-0.1,2.8,0,4.1
			c0.2,1.6,1.6,0.5,2.4,0.7c0.5,0.1,1.5,0.5,1.4-0.7c0-2,0-4,0-6c0-0.6,0.1-0.9,0.9-0.9c3-0.1,3-0.1,3,2.9c0,1.4-0.1,2.8,0,4.1
			c0.2,1.6,1.6,0.5,2.4,0.7c0.5,0.1,1.5,0.5,1.4-0.7c0-2,0-4,0-6c0-0.6,0.1-0.9,0.9-0.9c3-0.1,3-0.1,3,2.9c0,1.4-0.1,2.8,0,4.1
			c0.2,1.6,1.6,0.5,2.4,0.7c0.5,0.1,1.5,0.5,1.4-0.7c0-2,0-4,0-6c0-0.6,0.1-0.9,0.9-0.9c3-0.1,3-0.1,3,2.9c0,1.2,0.1,2.3,0,3.5
			c-0.1,1.1,0.2,1.5,1.4,1.4c1.8-0.1,3.6,0,5.4,0c0.7,0,1,0.1,1,0.9c0,3,0.1,3-2.9,3C74.1,30.9,73.8,30.9,73.5,30.9z"/>
	</g>
</g>
</svg>
