
<svg version="1.1"
	 xmlns="http://www.w3.org/2000/svg" xmlns:xlink="http://www.w3.org/1999/xlink" 
	 x="0px" y="0px" width="56.3px" height="56.6px" viewBox="0 0 56.3 56.6" enable-background="new 0 0 56.3 56.6"
	 xml:space="preserve">
<defs>
</defs>
<g>
	<path fill="#666666" d="M0.2,40.5c0-0.9-0.3-1.8-0.1-2.6c1.8-9.2,4.3-17.8,2-27.8C0.4,2.8,10.7-2.9,17.6,1.6
		C26.2,7,33.2,5.8,40.5,0c12.8,0.6,17.6,7.6,12.5,19c-1.5,3.5-1.1,5.5,0.7,8.6c6,10.1,1.6,20.3-9.6,23.2c-2.6,0.7-5,1.3-7.1,2.9
		c-2.6,2-6,3.6-9.1,2.5C17.7,52.6,5.9,51.8,0.2,40.5z M21.1,49.3L21.1,49.3c8.4,6,29.1-1.2,31.4-11c0.7-3.1,0.3-6.2-1.7-8.3
		c-4.5-4.8-6.3-11.2-10.1-16.3c5.3-3.3,4.8,4.2,8.2,4.5c2.6-1.9,2.5-4.6,2.4-7.2c-0.1-3.7-2.3-5.9-5.6-7c-2.4-0.8-5.1-0.3-6.5,1.5
		c-2.4,3,3,3.6,2.6,6.2c-0.1,0.7-0.6,1.4-1,2.2c-12.3-8.1-21.6-5.8-28.9,6.9c-1.6,2.7-3.6,5.2-5.4,7.9C1,36.4,4.3,45.4,13.7,47.3
		C16.2,47.8,18.7,48.2,21.1,49.3z M19.5,6.8C15,3.5,11.1,2.2,7.4,6.2c-3.7,4-3,8.3,0.6,12.9C11.2,14.4,14.9,10.5,19.5,6.8z"/>
	<path fill="#666666" d="M21.1,49.3c1.7-2.7,8.2-3.7,2.8-8.8c-1.1-1.1-0.8-3,1.1-3.2c2.2-0.3,4.7-0.3,6.8,0.3c1.9,0.5,1,2.3,0.2,3.5
		c-1.1,1.8-3.6,3.1,0.2,5.3c2.3,1.3-0.2,2.8-1.9,2.9C27.3,49.3,24.2,49.2,21.1,49.3C21,49.2,21.1,49.3,21.1,49.3z"/>
	<ellipse fill="#666666" cx="20.1" cy="24.5" rx="2.8" ry="5.2"/>
	<ellipse fill="#666666" cx="34.1" cy="24.5" rx="2.8" ry="5.2"/>
</g>
</svg>
