
<svg version="1.1"
	 xmlns="http://www.w3.org/2000/svg" xmlns:xlink="http://www.w3.org/1999/xlink" 
	 x="0px" y="0px" width="61.2px" height="53.1px" viewBox="0 0 61.2 53.1" enable-background="new 0 0 61.2 53.1"
	 xml:space="preserve">
<defs>
</defs>
<g id="CHG2oR.tif_1_">
	<g>
		<path fill="#FFFFFF" d="M0,25.8C0,17.2,0,8.6,0,0c20.4,0,40.8,0,61.2,0c0,17.7,0,35.3,0,53.1c-20.4,0-40.8,0-61.2,0
			c0-7.5,0-15.1,0-22.7c0.2,0.8,0.4,1.6,0.6,2.4c1.1,5.9,3,11.4,7,15.9c2.3,2.6,5.2,3.9,8.8,3.3c2.3-0.4,3.7-1.6,3.4-4.1
			c-0.2-1.8-0.3-3.7-0.6-5.5c-0.9-6.3,2.7-12,8.4-13.1c8.4-1.7,14.8,4.3,13.8,13c-0.2,2-0.6,4.1-0.3,6c0.2,1.2,1.2,2.6,2.3,3.1
			c3.4,1.7,7.5,0.3,10.4-3.6c5.7-7.7,8.1-16.3,6-25.7C56.9,9.5,45.3,0.8,31.3,0.4C16.8-0.1,4.2,8.9,0.9,22.2
			C0.6,23.4,0.3,24.6,0,25.8z"/>
		<path fill="#666666" d="M0,25.8c0.3-1.2,0.6-2.4,0.9-3.6C4.2,8.9,16.8-0.1,31.3,0.4c14,0.5,25.6,9.1,28.5,21.8
			c2.2,9.4-0.2,18.1-6,25.7c-2.9,3.9-6.9,5.2-10.4,3.6c-1-0.5-2.1-2-2.3-3.1c-0.3-2,0.1-4,0.3-6c0.9-8.7-5.5-14.7-13.8-13
			c-5.7,1.1-9.3,6.8-8.4,13.1c0.2,1.8,0.4,3.7,0.6,5.5c0.3,2.5-1.1,3.7-3.4,4.1c-3.6,0.6-6.5-0.7-8.8-3.3c-4.1-4.5-6-10.1-7-15.9
			C0.4,32,0.2,31.2,0,30.4C0,28.8,0,27.3,0,25.8z M17.4,7.1c3.7,6.8,5.8,12,9.4,18.5c0.2,0.4,0.8,0.2,1.4,0.2
			c1.1,0.1,2.3,0.2,3.4,0.3c1.6,0.2,1.3,0.4,2-1c2.4-4.7,5.1-9.1,7.6-13.7c0.9-1.6,0.5-3.1,1.4-4.9C32.9,1.6,27.2,2.1,17.4,7.1z
			 M37.9,26.2c1.9,1.7,1.9,2.6,3.7,4c0.4,0.3,1.4,0.9,1.9,0.7c4.5-2,7.8-3.1,12.2-5.3c0.6-0.3,0.3-1.4,0.2-2
			c-1.2-7-3.1-9.4-9.1-13.5C43.2,17.1,41.4,19.8,37.9,26.2z M13.9,9.1c-6,4.3-8.5,8.4-9.7,15.4c-0.1,0.5,0.9,0.4,1.3,0.6
			c5,2.5,8.2,3.9,13,6.2c2.2-1.8,2.7-2.5,4.8-4.3C19.7,20.5,17.7,16.1,13.9,9.1z M3.6,28.7c0.5,7.8,0.8,12,5.7,17.4
			c1.1,1.2,3,1.8,4.6,2.3c2.8,0.8,2.3,0.8,2.2-2.1c-0.2-3.5-0.1-6.8-0.1-10.3c0-0.6-0.2-1.7-0.6-1.9C10.6,31.8,8.8,31.2,3.6,28.7z
			 M57,29.4c-4.3,2-5.7,2.7-9.3,4.4c-1,0.5-1.7,0.1-2.6,0.7c-0.4,0.3-1.1,0.9-1.1,1.4c0,3.4,0.9,5.7,0.9,9.1c0,3.4,0,4,3.3,3
			c1.1-0.3,1.3-1.8,2.1-2.6C55.7,39.9,56.6,37.3,57,29.4z"/>
		<path fill="#666666" d="M26.6,7.7c-1.3,0.9-2,1.7-2.8,1.7c-0.6,0-1.2-1-1.8-1.6c0.6-0.6,1.2-1.6,1.9-1.8C24.4,6,25.2,6.8,26.6,7.7
			z"/>
		<path fill="#666666" d="M26.8,11c0.7,0.9,1.5,1.4,1.4,1.9c0,0.5-0.8,1.1-1.2,1.6c-0.5-0.5-1.3-0.9-1.5-1.5
			C25.4,12.6,26.1,12,26.8,11z"/>
		<path fill="#666666" d="M12.3,15.7c-0.5-1.1-1.1-1.7-1-2.2c0-0.4,0.8-0.8,1.3-1.2c0.4,0.5,1,1,1.1,1.6
			C13.7,14.3,13,14.8,12.3,15.7z"/>
	</g>
</g>
</svg>
