
<svg version="1.1"
	 xmlns="http://www.w3.org/2000/svg" xmlns:xlink="http://www.w3.org/1999/xlink" 
	 x="0px" y="0px" width="109.9px" height="128px" viewBox="0 0 109.9 128" enable-background="new 0 0 109.9 128"
	 xml:space="preserve">
<defs>
</defs>
<g id="_x39_mh5vG.tif_1_">
	<g>
		<path fill="#666666" d="M109.9,60c0,7.7,0,15.3,0,23c-2.2,8.6-4.8,17.2-6.5,25.9c-1.7,9-6,15.6-14.5,19.1c-19,0-38,0-57,0
			c-10.6-4.5-14.6-12.7-13.7-23.9c0.4-5.3,0.4-10.7,0-16c-0.4-4.7-1-9.6-2.6-14C11.1,61.5,6.1,49,1.3,36.4C-1.3,29.1,0,22.6,5.4,17
			c5.1-5.3,11.7-7.3,18.3-4.5c5,2.1,9,6.6,13.2,9.8c0-1.3-0.3-3.7,0.1-6.1c0.4-2.4,1-4.9,2.2-7c3.9-7.1,12.3-10.6,20.1-8.7
			c8.2,2,13.7,8.8,13.9,17.3c0.1,6.2,0,12.5,0,18.9c8-0.6,13.9,1.6,18.1,7.8c0.5,0.8,1.8,1.5,2.8,1.6
			C102.3,47.5,107.4,52.3,109.9,60z M48.4,93.6c0-0.4,0-0.8,0-1.2c0.2-0.2,0.5-0.6,0.7-0.6c4.6-0.1,9.3-0.1,13.9-0.4
			c5.1-0.3,8.3-3.6,8.1-8.2c-0.1-4.5-3-7.4-8.1-7.6c-4.8-0.2-9.7,0.3-14.5-0.2c-7-0.7-12,1.9-16.4,7.2c-3,3.7-5.1,7-4.6,11.9
			c0.4,4.5,0,9,0.1,13.5c0.1,7.7,3.3,11,10.9,11c14.6,0,29.3,0,43.9,0c6.8,0,9.6-2.3,11.3-8.9c2-7.7,4.1-15.4,5.7-23.2
			c1-4.6,1.1-9.4,1.6-14.1c-1.8,0.9-2.5,2.1-3.1,3.4c-2.5,5.4-4.8,11-7.5,16.3c-3.8,7.3-13,7.9-17.7,1.4c-0.8-1-1.4-2.2-2-3.2
			C63.5,95.9,55.8,93.4,48.4,93.6z M28.9,83.5C34.2,73,43.4,72.3,53.3,73c1.4,0.1,3.6-1.3,4.4-2.7c4.5-8.1,7.3-16.5,6.4-26.1
			c-0.7-7.3-0.1-14.6-0.1-22c0-8.6-2.9-12.9-8.8-13.1C49,9,45.9,13.4,45.9,22.2c0,13.8,0,27.6,0,41.2c-3.3,1.3-4.9,0.3-5.9-2.7
			c-4.2-11.4-8.5-22.7-12.9-34c-2-5.2-6.9-7.3-11.8-5.6c-4.7,1.6-7,6.6-5.3,11.9c1.1,3.3,2.4,6.5,3.7,9.8
			C18.6,56.1,23.5,69.3,28.9,83.5z M102,62.5c-2.7-2.5-4.6-5.3-7.2-6.5c-3.5-1.7-7.1-0.3-8.9,3.3c-4.3,8.8-8.4,17.7-12.2,26.6
			c-1.6,3.7,0.3,6.9,3.5,9c3.1,2.1,7.3,2.1,9-0.8C91.7,84.1,96.4,73.7,102,62.5z M73.2,80.4c3.3-7.2,6.3-13.8,9.3-20.3
			c0.6-1.2,1.1-2.4,1.5-3.7c1.3-4.1-0.4-8.5-4.2-9.9c-4-1.5-7.9-0.7-9.9,3.2c-3.8,7.5-7.1,15.2-10.9,23.4
			C65.5,72.6,70.2,74.6,73.2,80.4z"/>
		<path fill="#FFFFFF" d="M88.9,128c8.6-3.5,12.8-10.1,14.5-19.1c1.7-8.7,4.3-17.3,6.5-25.9c0,15,0,30,0,45
			C102.9,128,95.9,128,88.9,128z"/>
	</g>
</g>
</svg>
