
<svg version="1.1"
	 xmlns="http://www.w3.org/2000/svg" xmlns:xlink="http://www.w3.org/1999/xlink" 
	 x="0px" y="0px" width="100.3px" height="34.9px" viewBox="0 0 100.3 34.9" enable-background="new 0 0 100.3 34.9"
	 xml:space="preserve">
<defs>
</defs>
<g id="yBQ3iH.tif_1_">
	<g>
		<path fill="none" stroke="#666666" stroke-width="7" stroke-miterlimit="10" d="M72,31.4c-0.7,0-1.4,0-2.1,0
			c-0.7-0.4-1.4-0.3-2.1-0.4c-5.1-0.6-9-2.8-10.8-7.9c-1.1-2.9-2.3-5.8-3.2-8.8c-0.2-0.7-0.6-1.1-1.3-1.3c-1.5-0.4-3.1-0.4-4.6,0
			c-0.6,0.1-1,0.5-1.2,1.1c-0.9,2.8-2,5.5-3,8.3c-1.7,4.8-5,7.5-10.1,8.3C32.3,31,31,31,29.8,31.4c-0.5,0-0.9,0-1.4,0
			c-1.6-0.3-3.1-0.3-4.7,0c-0.4,0-0.8,0-1.2,0c-0.2-0.3-0.5-0.2-0.7-0.2c-1.8-0.2-3.5-0.5-5.3-0.7c-2.7-0.3-4.4-1.8-5.7-4.1
			c-0.7-1.2-1.2-2.6-1.5-4c-0.7-2.8-1.4-5.7-2.2-8.5c-0.3-1.3-1.1-2.4-2.3-3c-1.1-0.5-1.3-1.4-1.4-2.4c0-0.8,0-1.7,0.2-2.5
			c0.2-0.9,0.7-1.4,1.6-1.5c4.5-0.6,9.1-0.9,13.7-1C28,3.5,36.9,4,45.7,6.2c3,0.7,6,0.7,8.9,0c1.7-0.4,3.5-0.8,5.2-1.1
			c11.2-1.8,22.4-2,33.6-0.8c1.7,0.2,3.1,0.5,3.3,2.5c0,0.8,0,1.7,0,2.5c-0.3,0.7-0.8,1.2-1.5,1.6c-1.1,0.7-1.9,1.7-2.2,3
			c-0.6,2.5-1.3,5.1-1.9,7.6c-0.5,2-1.1,4-2.3,5.7c-1.1,1.6-2.6,2.8-4.6,3.1c-1,0.1-1.9,0.3-2.9,0.5c-1.3,0.3-2.6,0.1-3.8,0.6
			c-0.5,0-0.9,0-1.4,0C74.8,31.1,73.4,31,72,31.4z"/>
	</g>
</g>
</svg>
