
<svg version="1.1"
	 xmlns="http://www.w3.org/2000/svg" xmlns:xlink="http://www.w3.org/1999/xlink" 
	 x="0px" y="0px" width="216.6px" height="216.6px" viewBox="0 0 216.6 216.6" enable-background="new 0 0 216.6 216.6"
	 xml:space="preserve">
<defs>
</defs>
<g>
	<path fill="#6E6D6C" d="M108.3,0c60.4,0,109.1,49.5,108.2,110c-0.8,59-49.2,106.6-108.3,106.6c-60.4,0-109.1-49.5-108.2-110
		C0.8,47.7,49.3,0,108.3,0z"/>
	<path fill="#FAF9F9" d="M202.8,107.5c0.5,51.5-42,94.9-93.6,95.3c-51.5,0.5-95.1-42.2-95.4-93.5c-0.3-51.6,42-94.7,93.6-95.5
		C158.6,13.1,202.3,56.1,202.8,107.5z"/>
	<path fill="#6E6D6C" d="M111.6,189.7c-23.6-0.3-41.7-8.2-55.1-24.7c-9.2-11.3-20.5-26.1-13.1-39.1c6.5-11.5,22.3-1.4,34,0.5
		c24.6,3.9,48.9,4.1,73.2-2.8c7.3-2.1,16.6-5.7,22.3,0.7c7.1,7.9,0.6,16.9-2.8,24.8C158.4,175.2,137,187.2,111.6,189.7z"/>
	<path fill="#FAF9F9" d="M55.9,137.9c33.9,4.1,67.1,9.1,100.4-4.5c-2.6,20-5.6,25.2-23.5,27.1C104.7,163.5,75.3,167.8,55.9,137.9z"
		/>
	<ellipse fill="#6E6D6C" cx="75.6" cy="70.2" rx="15.2" ry="26"/>
	<ellipse fill="#6E6D6C" cx="134.5" cy="67.3" rx="15.2" ry="26"/>
</g>
</svg>
