
<svg version="1.1"
	 xmlns="http://www.w3.org/2000/svg" xmlns:xlink="http://www.w3.org/1999/xlink"
	 x="0px" y="0px" width="149.6px" height="149.6px" viewBox="0 0 149.6 149.6" enable-background="new 0 0 149.6 149.6"
	 xml:space="preserve">
<defs>
</defs>
<g id="MHdIDz.tif_1_">
	<g>
		<path fill="#666666" d="M76.6,0c0.8,0.3,1.5,0.5,2.3,0.9c3.4,1.7,5.3,4.5,5.3,8.3c0.1,6.3,0.1,12.7,0,19c0,5.2-4.2,9.3-9.3,9.3
			c-5.1,0-9.3-4.1-9.3-9.3c-0.1-6.1,0-12.3,0-18.4c0-4.8,2.5-8.1,7.1-9.5c0.2-0.1,0.3-0.2,0.5-0.3C74.2,0,75.4,0,76.6,0z"/>
		<path fill="#666666" d="M0,73.1c0.3-0.7,0.5-1.3,0.8-2c1.7-3.5,4.5-5.5,8.4-5.6c6.3-0.1,12.7-0.1,19,0c5.2,0,9.2,4.2,9.3,9.3
			c0,5.1-4.1,9.3-9.3,9.3c-6.1,0-12.3,0-18.4,0c-4.8,0-8.1-2.5-9.5-7.1c-0.1-0.2-0.2-0.3-0.3-0.5C0,75.4,0,74.2,0,73.1z"/>
		<path fill="#666666" d="M28.5,19.2c2.6,0,4.8,0.9,6.6,2.7c4.5,4.4,8.9,8.8,13.3,13.3c3.7,3.8,3.6,9.5,0,13.1
			c-3.7,3.7-9.4,3.8-13.2,0c-4.5-4.3-8.8-8.8-13.2-13.2c-2.8-2.9-3.5-6.9-2-10.4C21.5,21.4,24.8,19.2,28.5,19.2z"/>
		<path fill="#666666" d="M121.9,19.2c3.2,0.1,6.2,2,7.7,5.6c1.6,3.7,1,7.2-1.8,10.1c-2.2,2.3-4.5,4.5-6.7,6.7
			c-2.2,2.2-4.3,4.4-6.5,6.5c-3.9,3.9-9.7,3.9-13.5,0.1c-3.7-3.8-3.6-9.5,0.3-13.3c4.3-4.3,8.6-8.6,12.9-12.9
			C116.3,20.1,118.5,19.2,121.9,19.2z"/>
		<path fill="#666666" d="M28.6,130.4c-3.9-0.1-6.8-1.8-8.5-5.4c-1.7-3.6-1.3-7.2,1.4-10.1c4.6-4.8,9.3-9.6,14.1-14.1
			c3.6-3.4,9.2-3.1,12.7,0.4c3.5,3.5,3.9,9.1,0.5,12.7c-4.6,4.9-9.4,9.6-14.2,14.3C33,129.8,30.9,130.4,28.6,130.4z"/>
		<path fill="#666666" d="M130.4,121.1c-0.1,3.8-1.9,6.7-5.3,8.4c-3.5,1.7-7.1,1.4-9.9-1.3c-4.9-4.6-9.7-9.4-14.4-14.3
			c-3.4-3.6-3-9.2,0.5-12.7c3.5-3.5,9.1-3.8,12.7-0.4c4.8,4.6,9.5,9.4,14.2,14.1C129.8,116.7,130.5,118.8,130.4,121.1z"/>
		<path fill="#666666" d="M131,65.5c3.1,0,6.1,0,9.2,0c5.3,0,9.4,4.1,9.4,9.3c0,5.2-4.1,9.4-9.4,9.4c-6.2,0-12.5,0-18.7,0
			c-5.3,0-9.4-4.2-9.4-9.4c0-5.2,4.1-9.3,9.4-9.3C124.8,65.4,127.9,65.5,131,65.5z"/>
		<path fill="#666666" d="M84.2,130.9c0,3.1,0,6.1,0,9.2c0,5.4-4.1,9.5-9.4,9.5c-5.2,0-9.3-4.2-9.3-9.6c0-6.1,0-12.2,0-18.3
			c0-5.4,4.1-9.6,9.3-9.6c5.3,0,9.4,4.1,9.4,9.5C84.2,124.8,84.2,127.9,84.2,130.9z"/>
	</g>
</g>
</svg>
