
<svg version="1.1"
	 xmlns="http://www.w3.org/2000/svg" xmlns:xlink="http://www.w3.org/1999/xlink"
	 x="0px" y="0px" width="64.5px" height="64px" viewBox="0 0 64.5 64" enable-background="new 0 0 64.5 64" xml:space="preserve">
<defs>
</defs>
<g id="_x32_YODmA.tif_1_">
	<g>
		<path fill="#FFFFFF" d="M30.9,47.4c-3.9,1.3-7.8,2.5-11.7,3.8c0.5,2,0.9,3.9,1.3,5.7c0.4,2.3,1.6,3,3.9,2.3
			C28.3,58,31.9,51.8,30.9,47.4z M17,33.4c-0.2-0.3-0.4-0.5-0.6-0.8c-2.5,0.9-4.9,2-7.4,2.8c-2.6,0.9-3.5,3-3.9,5.4
			c-0.3,1.5,0.2,2.6,2,2.9c2.1,0.4,4.2,0.9,6.2,1.4C14.5,41.1,15.7,37.2,17,33.4z"/>
		<path fill="#666666" d="M64.5,9.8c-2.6,7.8-7.9,13.6-13.7,19c-1.4,1.3-1.8,2.6-1.7,4.3c0.3,5.7,0.4,11.5,0.6,17.2
			c0.2,4-0.7,7.8-2.8,11.2c-0.5,0.9-1.3,1.6-2,2.4c-0.6-0.9-1.3-1.6-1.7-2.6c-2.2-6.1-4.3-12.1-6.5-18.2c-0.2-0.5-0.4-1-0.7-1.8
			c-1.9,1.1-3.5,2.4-5.4,3.2c-3,1.3-6,2.8-9.1,3.4c-4,0.8-5.9-1-5-5c0.8-3.6,2.7-7.1,4.3-10.5c0.6-1.3,1.5-2.5,2.5-4
			c-1-0.4-1.8-0.8-2.7-1.2C14.8,25.3,9,23.3,3.2,21.2c-1.1-0.4-2.1-1-3.2-1.5c0-0.2,0-0.4,0-0.5c4.1-3,8.6-4.8,13.6-4.6
			c5.6,0.1,11.3,0.3,16.9,0.7c2.5,0.2,4.4-0.3,6.2-2.3C42.1,7.2,47.9,2,55.8,0c0.4,0,0.7,0,1.1,0c3.7,0.8,6.2,3.1,7.7,6.6
			C64.5,7.7,64.5,8.8,64.5,9.8z M20.4,44c4.9,0.5,5.8-1.4,9-3.4c9.7-6,15.3-11.7,22.7-20.3c2.2-2.6,4.4-4.4,6-7.5
			c1.2-2.3,2.7-4.9,0.6-6.9C56.6,4,55.7,4,53.4,5c-2.4,1.1-4.8,3-6.7,4.7c-5.4,5.1-9.2,8.7-14,14.4c-4,4.8-7.4,9.2-10.7,14.5
			C21,40.4,21.2,41.5,20.4,44z M29.5,18.3c-9,0.1-13-2-21.3,0.8c6,2.6,8.3,2.7,14.4,4.7c0.4,0.1,1.7,0.9,2,0.5
			C26.5,22.2,27.2,21.3,29.5,18.3z M44.9,55.1c0.3,0,1-0.3,1.4-0.3c2.6-8.1,0-10.3,0.3-19.1c-2.9,2.3-3.3,1.8-5.6,3.8
			c-0.4,0.3-0.5,2-0.3,2.6C42.6,47.8,42.8,49.4,44.9,55.1z"/>
		<path fill="#666666" d="M30.9,47.4c0.9,4.4-2.6,10.6-6.5,11.8c-2.3,0.7-3.4,0-3.9-2.3c-0.3-1.9-0.8-3.7-1.3-5.7
			C23.2,49.9,27,48.7,30.9,47.4z M27.7,52.4c-0.2-0.3-0.5-0.5-0.7-0.8c-1.5,0.5-3,1-4.5,1.5c0.4,1.3,0.6,2.3,0.9,3.3
			c0.3,0.1,0.6,0.3,1,0.4C25.4,55.4,26.6,53.9,27.7,52.4z"/>
		<path fill="#666666" d="M17,33.4c-1.2,3.8-2.4,7.6-3.7,11.7c-2-0.5-4.1-1-6.2-1.4c-1.8-0.3-2.3-1.4-2-2.9c0.4-2.4,1.3-4.5,3.9-5.4
			c2.5-0.9,5-1.9,7.4-2.8C16.6,32.9,16.8,33.1,17,33.4z M7.5,40.1c0.2,0.4,0.3,0.7,0.5,1.1c1.1,0.2,2.2,0.4,3.4,0.7
			c0.5-1.7,0.9-3.2,1.3-4.6c-0.2-0.2-0.5-0.4-0.7-0.5C10.5,37.8,9,38.9,7.5,40.1z"/>
	</g>
</g>
</svg>
